<?xml version="1.0" encoding="UTF-8"?>
<svg id="Capa_1" data-name="Capa 1" xmlns="http://www.w3.org/2000/svg" viewBox="0 0 27.67 22.32">
  <path d="m7.92,0H0v2.1h7.92V0Z" style="fill: #95a5a6;"/>
  <path d="m0,0v7.92h2.1V0H0Z" style="fill: #95a5a6;"/>
  <path d="m27.64,7.93V0h-2.1v7.92h2.1Z" style="fill: #95a5a6;"/>
  <path d="m27.64,0h-7.92v2.1h7.92V0Z" style="fill: #95a5a6;"/>
  <path d="m19.75,22.32h7.92v-2.1h-7.92v2.1Z" style="fill: #95a5a6;"/>
  <path d="m27.67,22.32v-7.92h-2.1v7.92h2.1Z" style="fill: #95a5a6;"/>
  <path d="m.03,14.4v7.92h2.1v-7.92H.03Z" style="fill: #95a5a6;"/>
  <path d="m.03,22.32h7.92v-2.1H.03v2.1Z" style="fill: #95a5a6;"/>
  <path d="m8.65,4.64h-4.36v13.03h4.36V4.64Z" style="fill: #95a5a6;"/>
  <path d="m12.94,4.64h-2.5v13.03h2.5V4.64Z" style="fill: #95a5a6;"/>
  <path d="m19.09,4.64h-4.36v13.03h4.36V4.64Z" style="fill: #95a5a6;"/>
  <path d="m23.38,4.64h-2.5v13.03h2.5V4.64Z" style="fill: #95a5a6;"/>
</svg>