<?xml version="1.0" encoding="UTF-8"?>
<svg id="Capa_1" data-name="Capa 1" xmlns="http://www.w3.org/2000/svg" viewBox="0 0 34.98 34.98">
  <path d="m17.49,34.98c9.66,0,17.49-7.83,17.49-17.49S27.15,0,17.49,0,0,7.83,0,17.49s7.83,17.49,17.49,17.49Z" style="fill: #fff;"/>
  <path d="m21.16,26.59c.05,1.73-1.41,3.59-3.85,3.51-1.94-.07-3.63-1.78-3.44-3.51h7.29Z" style="fill: #35495e;"/>
  <polygon points="17.61 25.63 17.51 25.63 17.56 25.6 17.61 25.63" style="fill: #35495e;"/>
  <path d="m28.85,25.49c-.29.05-.48.11-.68.11-1.75.01-3.51.01-5.26.01-1.79.01-3.56.01-5.35.02h-.02s-.03,0-.03,0c-1.79-.01-3.56-.01-5.35-.02-1.75,0-3.51,0-5.26-.01-.2,0-.39-.06-.68-.11.21-.27.33-.49.5-.67,1.3-1.37,2.01-3.04,2.37-4.85.25-1.24.33-2.52.46-3.8.12-1.18.06-2.39.45-3.54.89-2.57,2.62-4.29,5.21-5.14.26-.08.31-.2.32-.45.05-.63.08-1.26.23-1.86.24-.87.87-1.29,1.74-1.31h.07c.87.02,1.5.44,1.74,1.31.15.6.18,1.23.23,1.86.01.25.06.37.32.45,2.59.85,4.32,2.57,5.21,5.14.39,1.15.33,2.36.45,3.54.13,1.28.21,2.56.46,3.8.36,1.81,1.07,3.48,2.37,4.85.17.18.29.4.5.67Z" style="fill: #35495e;"/>
  <polygon points="17.61 25.63 17.51 25.63 17.56 25.6 17.61 25.63" style="fill: #35495e;"/>
</svg>