<?xml version="1.0" encoding="UTF-8"?>
<svg id="Capa_1" data-name="Capa 1" xmlns="http://www.w3.org/2000/svg" xmlns:xlink="http://www.w3.org/1999/xlink" viewBox="0 0 37 37">
  <defs>
    <clipPath id="clippath">
      <rect width="37" height="37" style="fill: none;"/>
    </clipPath>
  </defs>
  <g style="clip-path: url(#clippath);">
    <g>
      <path d="m18.51,36.49c9.97,0,18.05-8.05,18.05-17.98S28.48.54,18.51.54.46,8.58.46,18.51s8.08,17.98,18.05,17.98Z" style="fill: #fff;"/>
      <path d="m9.69,9.26c.48,0,.9.35.99.82l.06.52h17.71c.86,0,1.54.85,1.3,1.71l-2.28,8.08c-.17.58-.7.98-1.3.98h-13.34l.39,2.02h12.97c.56,0,1.01.45,1.01,1.01s-.45,1.01-1.01,1.01h-13.84c-.44,0-.86-.35-.96-.82l-2.54-13.32h-2.19c-.55,0-1.01-.46-1.01-1.01s.46-1.01,1.01-1.01h3.03Zm1.34,19.52c0-1.12.91-2.02,2.02-2.02s2.02.91,2.02,2.02-.91,2.02-2.02,2.02-2.02-.91-2.02-2.02Zm16.17,0c0,1.12-.91,2.02-2.02,2.02s-2.02-.91-2.02-2.02.91-2.02,2.02-2.02,2.02.91,2.02,2.02Z" style="fill: #34495e;"/>
    </g>
  </g>
</svg>