<?xml version="1.0" encoding="UTF-8"?>
<svg id="Capa_1" data-name="Capa 1" xmlns="http://www.w3.org/2000/svg" xmlns:xlink="http://www.w3.org/1999/xlink" viewBox="0 0 104.5 104.5">
  <defs>
    <clipPath id="clippath">
      <rect width="104.5" height="104.5" style="fill: none;"/>
    </clipPath>
  </defs>
  <g style="clip-path: url(#clippath);">
    <g>
      <path d="m46,101.8c12.35-.1,24.33-5.35,32.52-13.38-10.4-10.4-20.8-20.8-31.18-31.18-.38.33-.85.51-1.32.54v44.01h-.02Z" style="fill: #2b81ba;"/>
      <path d="m43.4,56.67h.09L13.53,29.12l-2.58-2.35C4.42,34.64.47,45.63.4,56.64h42.93s.04.02.07.03Z" style="fill: #e94c3d;"/>
      <path d="m31,69.75c4.27-4.3,8.53-8.6,12.82-12.89-.03.02-.3-.14-.44-.19-.03-.02-.05-.02-.07-.02H.4c.14,11.86,5.17,23.02,12.73,31.09,1.11-1.11,2.23-2.25,3.36-3.36,4.84-4.86,9.68-9.74,14.51-14.63Z" style="fill: #f49d15;"/>
      <path d="m45.86,57.79c-.56,0-1.1-.19-1.53-.59l-.02-.02c-.19-.1-.37-.21-.47-.31-4.28,4.28-8.55,8.59-12.82,12.89-4.84,4.88-9.67,9.75-14.53,14.63-1.11,1.11-2.23,2.25-3.36,3.36l-.02.02c8.19,8.41,20.26,13.99,32.88,14.16v-44.15c-.05,0-.09.02-.14.02Z" style="fill: #18a085;"/>
      <path d="m103.38,24.13c1.58-9.93-5.19-19.25-15.12-20.83-9.93-1.58-19.25,5.19-20.83,15.12-1.58,9.93,5.19,19.25,15.12,20.83,9.93,1.58,19.25-5.19,20.83-15.12Z" style="fill: #e94c3d;"/>
      <path d="m85.27,42.74c-11.76,0-21.28-9.53-21.28-21.28,0-2.51.45-4.91,1.25-7.16-5.76-2.63-12.19-4.13-18.98-4.13-12.56,0-23.93,5.05-32.22,13.24l33.35,30.41c.94.85.99,2.3.16,3.22-.07.07-.16.14-.23.19,10.43,10.43,20.88,20.88,31.31,31.31,8.12-8.27,13.5-19.99,13.5-32.5,0-4.82-.77-9.47-2.16-13.86-1.5.37-3.08.56-4.7.56Z" style="fill: #fff;"/>
    </g>
  </g>
</svg>