<?xml version="1.0" encoding="UTF-8"?>
<svg id="Capa_1" data-name="Capa 1" xmlns="http://www.w3.org/2000/svg" xmlns:xlink="http://www.w3.org/1999/xlink" viewBox="0 0 405.7 101.43">
  <defs>
    <clipPath id="clippath">
      <rect width="405.7" height="101.43" style="fill: none;"/>
    </clipPath>
  </defs>
  <g style="clip-path: url(#clippath);">
    <g>
      <path d="m32.18,81.21c8.72-.07,17.17-3.78,22.95-9.44-7.34-7.34-14.67-14.67-22.01-22.01-.27.23-.6.35-.94.38v31.07Z" style="fill: #2980b9;"/>
      <path d="m30.35,49.36h.06L9.27,29.92l-1.82-1.66C2.84,33.82.05,41.57,0,49.34h30.3s.03,0,.05.02Z" style="fill: #e84c3c;"/>
      <path d="m21.6,58.6c3.01-3.04,6.02-6.08,9.05-9.1-.02,0-.21-.09-.3-.14-.02-.01-.04-.02-.05-.02H0c.1,8.39,3.66,16.27,8.98,21.96.79-.79,1.58-1.59,2.37-2.38,3.42-3.43,6.84-6.88,10.25-10.33Z" style="fill: #f39c12;"/>
      <path d="m32.08,50.15c-.39,0-.78-.14-1.09-.42h-.01c-.14-.08-.26-.16-.34-.23-3.03,3.03-6.04,6.06-9.05,9.1-3.41,3.45-6.83,6.89-10.25,10.32-.79.79-1.58,1.59-2.37,2.38,0,0,0,0-.01.01,5.78,5.94,14.29,9.87,23.21,9.99v-31.16s-.06.01-.09.01Z" style="fill: #16a085;"/>
      <path d="m72.68,26.39c1.11-7.01-3.66-13.59-10.67-14.7-7.01-1.11-13.59,3.66-14.7,10.67-1.11,7.01,3.66,13.59,10.67,14.7,7.01,1.11,13.59-3.66,14.7-10.67Z" style="fill: #e84c3c;"/>
      <path d="m73.91,39.78c0-.47.1-.91.31-1.34.21-.43.46-.76.76-1.01.71-.47,1.45-.7,2.22-.7h6.21c.52,0,.93.09,1.23.29.3.19.55.44.76.74.21.3.38.65.53,1.03.15.39.33.77.55,1.15.05.11.17.38.33.8.17.43.34.89.53,1.4.19.51.38.99.55,1.44.18.45.29.75.35.88.82-.9,1.61-1.86,2.36-2.86.75-1,1.56-1.92,2.4-2.78.85-.85,1.8-1.55,2.84-2.1,1.04-.55,2.28-.82,3.7-.82s2.8.11,3.97.33c1.17.22,2.27.54,3.31.97,1.04.43,2.08.97,3.1,1.62,1.03.66,2.14,1.43,3.35,2.3,1.89,1.01,2.25,2.52,1.07,4.52l-3.74,6.37c-.55.82-1.22,1.33-2.01,1.52-.79.19-1.66.07-2.59-.37-1.18-1.15-2.38-2.01-3.6-2.57-1.22-.56-2.61-.84-4.18-.84-1.07,0-2.01.15-2.82.45-.81.3-1.54.73-2.2,1.27s-1.27,1.21-1.85,1.97c-.58.77-1.15,1.62-1.73,2.55v29.77c0,1.04-.25,1.83-.76,2.36-.51.53-1.35.8-2.53.8h-9.25c-2.14,0-3.21-1.05-3.21-3.16v-46.01h0Z" style="fill: #fff;"/>
      <path d="m120.2,24.98c0-.46.01-.88.04-1.26.03-.38.14-.71.34-.98.2-.27.52-.48.96-.63.43-.15,1.04-.22,1.83-.22h9.72c.52,0,.94.09,1.28.26s.61.4.81.67c.2.27.34.56.41.88s.1.61.1.88v30.11l14.65-16.28c.71-.79,1.55-1.18,2.52-1.18h12.49c1.49,0,2.24.58,2.24,1.75,0,.3-.05.54-.14.73-.09.19-.29.46-.59.81l-16.73,17.66,21.04,27.02h-.08c.35.35.6.71.75,1.08s.22.7.22,1c0,.62-.17,1.05-.51,1.28-.34.23-.85.34-1.52.34h-13.75c-.46,0-.9-.18-1.3-.53-.41-.35-.86-.88-1.34-1.59l-13.3-18.84-4.52,4.68v13.14c0,.22-.03.5-.1.86-.07.35-.21.7-.41,1.04-.2.34-.48.63-.84.88-.35.24-.81.37-1.39.37h-10.21c-.49,0-.91-.13-1.26-.39-.35-.26-.63-.55-.84-.88-.2-.33-.35-.63-.45-.92-.09-.29-.14-.45-.14-.51V24.98h.01Z" style="fill: #fff;"/>
      <path d="m216.67,82.9c-2.41,2.22-5.13,3.96-8.15,5.21-3.02,1.25-6.21,1.87-9.59,1.87-3.76,0-7.31-.69-10.66-2.06-3.35-1.37-6.28-3.27-8.81-5.7-2.53-2.43-4.53-5.29-6.01-8.58-1.48-3.29-2.22-6.88-2.22-10.74,0-2.42.29-4.76.89-7.02.59-2.27,1.43-4.38,2.51-6.36,1.09-1.97,2.4-3.79,3.95-5.45,1.55-1.66,3.29-3.08,5.21-4.26,1.92-1.18,4.01-2.1,6.26-2.76,2.25-.66,4.63-.99,7.12-.99,2.28,0,4.49.3,6.63.91,2.14.6,4.15,1.45,6.03,2.55,1.88,1.1,3.6,2.41,5.17,3.95,1.57,1.54,2.91,3.22,4.04,5.04,1.12,1.83,1.99,3.77,2.61,5.85.62,2.07.93,4.21.93,6.4,0,1.43-.02,2.59-.06,3.5-.04.9-.25,1.63-.64,2.16-.38.53-1.02.91-1.91,1.11-.89.21-2.2.31-3.93.31h-29.64c.27,1.76.83,3.22,1.67,4.4.84,1.18,1.8,2.12,2.9,2.82,1.1.7,2.27,1.2,3.5,1.5,1.23.3,2.4.45,3.5.45.99,0,2-.1,3.05-.31,1.04-.21,2.05-.48,3.03-.82.97-.34,1.87-.74,2.67-1.19s1.46-.93,1.96-1.42c.44-.36.81-.63,1.13-.8.32-.18.65-.27,1.01-.27s.72.13,1.09.37c.37.25.79.61,1.25,1.07l4.36,4.94c.3.36.49.68.57.97.08.29.13.58.13.89,0,.55-.15,1.02-.45,1.42-.31.39-.67.74-1.08,1.04Zm-19.8-34.29c-1.07,0-2.11.21-3.11.64-1,.43-1.94.99-2.82,1.71-.88.71-1.67,1.52-2.37,2.43-.7.91-1.27,1.83-1.71,2.76h21.04c-.58-1.07-1.2-2.06-1.87-2.97-.67-.91-1.44-1.7-2.31-2.39-.86-.69-1.85-1.22-2.96-1.61-1.12-.39-2.41-.57-3.89-.57Z" style="fill: #fff;"/>
      <path d="m236.85,72.48c.74.74,1.54,1.36,2.4,1.87.86.51,1.69.92,2.48,1.23.79.31,1.49.54,2.09.68.61.14,1.01.2,1.23.2.52,0,1.19-.02,1.99-.06.81-.04,1.58-.16,2.32-.37.74-.2,1.38-.54,1.91-1,.53-.47.8-1.12.8-1.97,0-.77-.15-1.38-.45-1.83-.3-.45-.74-.84-1.31-1.15-.57-.31-1.28-.6-2.12-.85-.84-.24-1.77-.53-2.81-.86-3.29-.88-6-1.93-8.13-3.16-2.14-1.23-3.83-2.61-5.07-4.13-1.25-1.52-2.11-3.16-2.61-4.91-.49-1.75-.74-3.6-.74-5.54,0-2.27.45-4.34,1.36-6.2.9-1.86,2.19-3.46,3.86-4.79,1.67-1.33,3.67-2.35,6-3.08,2.33-.72,4.91-1.09,7.76-1.09,1.73,0,3.34.15,4.85.43,1.5.29,2.94.74,4.31,1.36,1.37.62,2.7,1.41,4.01,2.38s2.6,2.13,3.88,3.47c.47.55.7,1.06.72,1.54.01.48-.29.99-.93,1.54-1.07.88-2.09,1.74-3.06,2.59-.97.85-1.98,1.8-3.02,2.83-.33.27-.66.45-.99.51-.33.07-.64.06-.95-.02s-.59-.22-.86-.41c-.27-.19-.52-.43-.74-.7-.96-1.07-2.05-1.79-3.29-2.16-1.23-.37-2.38-.55-3.45-.55-1.34,0-2.41.23-3.21.7-.79.47-1.16,1.18-1.11,2.14.05.71.32,1.27.8,1.66.48.4,1.07.72,1.76.97.7.25,1.44.45,2.22.6.78.15,1.5.32,2.15.51,2.47.79,4.73,1.66,6.78,2.59,2.05.93,3.83,2.08,5.34,3.43,1.5,1.36,2.68,2.98,3.51,4.87.83,1.89,1.25,4.19,1.25,6.9s-.54,5.14-1.62,7.27c-1.08,2.14-2.57,3.93-4.46,5.38-1.89,1.45-4.13,2.56-6.72,3.33s-5.38,1.15-8.36,1.15c-1.7,0-3.42-.15-5.18-.45-1.75-.3-3.45-.79-5.09-1.46-1.64-.67-3.2-1.53-4.68-2.59-1.48-1.05-2.79-2.33-3.94-3.84-.3-.38-.53-.79-.68-1.21-.15-.42-.22-.84-.21-1.25.01-.41.1-.79.25-1.13.15-.34.39-.64.72-.88l5.3-5.3c.66-.55,1.24-.74,1.74-.57.52.17,1.17.64,1.96,1.4Z" style="fill: #fff;"/>
      <path d="m277.5,28.47c0-.85.28-1.48.84-1.91.56-.43,1.36-.83,2.4-1.21l9.32-3.24c.14-.03.27-.04.39-.04h.35c1.01,0,1.69.29,2.03.88.34.59.51,1.36.51,2.32l-.04,12.93h6.85c.88,0,1.59.26,2.13.78.55.52.82,1.3.82,2.34v7.92c0,1.15-.27,1.99-.82,2.52-.54.53-1.26.8-2.13.8h-6.85l.04,33c0,1.04-.3,1.83-.9,2.36s-1.43.8-2.5.8h-9.28c-2.11,0-3.16-1.05-3.16-3.16l-.04-33h-3c-2.11,0-3.16-1.11-3.16-3.32v-7.92c0-2.08,1.05-3.12,3.16-3.12h3l.04-9.73Z" style="fill: #fff;"/>
      <path d="m309.38,40.47c0-.46.1-.9.3-1.31.2-.42.45-.75.75-.99.7-.46,1.43-.69,2.18-.69h6.1c.51,0,.92.09,1.21.28.3.19.54.43.75.73s.37.64.52,1.01c.15.38.33.75.55,1.13.05.11.16.37.32.79.16.42.33.88.53,1.37.19.5.37.97.54,1.41.18.45.29.73.34.87.81-.89,1.58-1.82,2.33-2.81.74-.98,1.53-1.89,2.36-2.73.83-.84,1.76-1.52,2.79-2.06,1.02-.54,2.23-.81,3.64-.81s2.75.11,3.9.32c1.15.22,2.23.53,3.25.95,1.02.42,2.04.95,3.05,1.6,1.01.65,2.11,1.4,3.29,2.26,1.86,1,2.21,2.48,1.05,4.45l-3.68,6.26c-.54.81-1.2,1.31-1.98,1.49-.78.19-1.63.07-2.55-.37-1.16-1.13-2.34-1.97-3.53-2.53-1.2-.55-2.57-.83-4.1-.83-1.05,0-1.97.15-2.76.45-.8.3-1.52.71-2.16,1.25-.65.54-1.25,1.19-1.82,1.94-.57.75-1.13,1.59-1.7,2.51v29.25c0,1.02-.25,1.8-.75,2.32-.5.52-1.33.79-2.49.79h-9.09c-2.1,0-3.15-1.03-3.15-3.11v-45.21h0Z" style="fill: #fff;"/>
      <path d="m405.7,85.75c0,.47-.08.91-.25,1.33-.16.42-.44.76-.82,1-.3.3-.65.49-1.06.57-.41.08-.77.12-1.07.12h-8.06c-.57,0-1.04-.07-1.39-.22-.36-.15-.64-.36-.86-.64-.22-.27-.4-.61-.55-1-.15-.4-.31-.82-.47-1.29l-1.19-3.07c-.74.74-1.55,1.52-2.42,2.35-.87.84-1.83,1.6-2.89,2.32-1.05.71-2.19,1.3-3.42,1.78-1.23.48-2.54.72-3.93.72-2.49,0-4.87-.31-7.15-.94-2.28-.63-4.41-1.52-6.39-2.68-1.98-1.16-3.77-2.55-5.38-4.18-1.61-1.63-2.99-3.43-4.16-5.43-1.16-1.99-2.06-4.14-2.68-6.45-.63-2.31-.94-4.72-.94-7.23,0-3.79.7-7.32,2.09-10.59,1.39-3.26,3.29-6.1,5.69-8.52,2.4-2.42,5.23-4.31,8.48-5.69,3.25-1.38,6.73-2.07,10.44-2.07,1.69,0,3.25.25,4.67.76,1.42.5,2.71,1.17,3.87,1.98s2.21,1.75,3.15,2.79c.94,1.04,1.78,2.09,2.52,3.15l1.6-4.95c.27-.68.5-1.23.68-1.66.18-.42.37-.74.57-.94.2-.2.46-.34.76-.41.3-.07.72-.1,1.27-.1h6.1c.3,0,.65.04,1.06.12.41.08.77.27,1.07.57.38.3.65.64.82,1.02.16.38.25.82.25,1.31v46.14h0Zm-40.33-22.93c0,1.8.28,3.49.84,5.06.56,1.57,1.36,2.93,2.39,4.07,1.03,1.15,2.28,2.06,3.74,2.72,1.46.67,3.08,1,4.85,1s3.53-.33,5.1-1c1.57-.67,2.94-1.58,4.09-2.72,1.16-1.15,2.07-2.5,2.72-4.07.65-1.57.98-3.26.98-5.06s-.33-3.41-.98-4.99c-.66-1.58-1.56-2.98-2.72-4.18-1.16-1.2-2.53-2.15-4.09-2.85-1.57-.7-3.27-1.04-5.1-1.04s-3.39.35-4.85,1.04c-1.46.7-2.71,1.65-3.74,2.85-1.04,1.2-1.84,2.59-2.39,4.18-.56,1.58-.84,3.25-.84,4.99Z" style="fill: #fff;"/>
      <path d="m59.91,39.53c-8.29,0-15.01-6.72-15.01-15.01,0-1.77.32-3.47.89-5.05-4.09-1.86-8.62-2.91-13.41-2.91-8.86,0-16.89,3.57-22.74,9.34l23.54,21.45c.66.6.7,1.62.1,2.28-.05.05-.1.09-.16.14,7.37,7.37,14.73,14.74,22.1,22.1,5.73-5.84,9.53-14.11,9.53-22.94,0-3.41-.54-6.69-1.52-9.78-1.07.24-2.18.38-3.33.38Z" style="fill: #fff;"/>
    </g>
  </g>
</svg>