<?xml version="1.0" encoding="UTF-8"?>
<svg id="Capa_1" data-name="Capa 1" xmlns="http://www.w3.org/2000/svg" xmlns:xlink="http://www.w3.org/1999/xlink" viewBox="0 0 36 36.03">
  <defs>
    <clipPath id="clippath">
      <rect width="36" height="36" style="fill: none;"/>
    </clipPath>
  </defs>
  <g style="clip-path: url(#clippath);">
    <g>
      <circle cx="18" cy="18" r="18" style="fill: #34495e;"/>
      <path d="m0,18.04C0,8.1,8.06.04,18,.04s18,8.06,18,18-8.06,18-18,18S0,27.97,0,18.04Zm5.26,9.13c2.84,3.96,7.49,6.54,12.74,6.54s9.89-2.58,12.74-6.54c-.23-1.96-1.65-3.6-3.59-4.09l-2.35-.59c-1.89,1.62-4.27,2.51-6.8,2.51s-4.9-.89-6.79-2.51l-2.35.59c-1.95.49-3.37,2.13-3.59,4.09Zm4.61-12.62c0,4.49,3.64,8.13,8.13,8.13s8.13-3.64,8.13-8.13-3.64-8.13-8.13-8.13-8.13,3.64-8.13,8.13Z" style="fill: #fff;"/>
    </g>
  </g>
</svg>